# xmcd
# 
# Track frame offsets:
#     150
#     16912
#     30931
#     42071
#     64166
#     78569
#     90826
#     112139
#     124094
#     140606
#     154365
#     168872
#     184307
#     200702
#     207482
#     222362
#     227474
#     249817
# 
# Disc length: 3545
# 
# Revision: 2
# Processed by: cddbd v1.5.2PL0 Copyright (c) Steve Scherf et al.
# Submitted via: fre:ac v1.0.31
# 
DISCID=f20dd712
DTITLE=The Everly Brothers - Songs Our Daddy Taught Us
DYEAR=1958
DGENRE=Country
TTITLE0=Roving Gambler
TTITLE1=Down in the Willow Garden
TTITLE2=Long Time Gone
TTITLE3=Lightning Express
TTITLE4=That Silver Haired Daddy of Mine
TTITLE5=Who's Gonna Shoe Your Pretty Little Feet
TTITLE6=Barbara Allen
TTITLE7=Oh So Many Years
TTITLE8=I'm Here to Get My Baby Out of Jail
TTITLE9=Rockin' Alone in My Old Rockin' Chair
TTITLE10=Kentucky
TTITLE11=Put My Little Shoes Away
TTITLE12=Roving Gambler [Take 1]
TTITLE13=Down in the Willow Garden [Take 1 - Electric]
TTITLE14=Down in the Willow Garden [Take 2 - Alternate Arrangement]
TTITLE15=Barbara Allen [Take 1 - False Start]
TTITLE16=Barbara Allen [Take 2]
TTITLE17=Put My Little Shoes Away [Take 1]
EXTD=
EXTT0=
EXTT1=
EXTT2=
EXTT3=
EXTT4=
EXTT5=
EXTT6=
EXTT7=
EXTT8=
EXTT9=
EXTT10=
EXTT11=
EXTT12=
EXTT13=
EXTT14=
EXTT15=
EXTT16=
EXTT17=
PLAYORDER=
